<?xml version="1.0" encoding="utf-8"?>
<!-- Generator: Adobe Illustrator 25.3.1, SVG Export Plug-In . SVG Version: 6.00 Build 0)  -->
<svg version="1.1" id="Laag_1" xmlns="http://www.w3.org/2000/svg" xmlns:xlink="http://www.w3.org/1999/xlink" x="0px" y="0px"
	 viewBox="0 0 1350 656.1" style="enable-background:new 0 0 1350 656.1;" xml:space="preserve">
<style type="text/css">
	.st0{fill:#45B389;}
</style>
<path class="st0" d="M228.5,114.3v427.5H656V114.3H228.5z M551.1,427.5H322.6l114.3-114.3l-110.4-29.6l14.8-55.2L562,287.7
	l-14.8,55.2l-110.4-29.6L551.1,427.5z"/>
<g>
	<g>
		<path d="M827,183.9h-24.8v68.7h-13.1v-68.7h-24.7v-12.5H827V183.9z"/>
		<path d="M896.3,212.3v40.3h-13.1V215c0-9.9-4.4-15.1-14-15.1c-11.1,0-17.2,7.3-17.2,19.6v33.1h-13.1v-89.4H852v36
			c4.5-7.4,11.5-11.8,21.4-11.8C887.6,187.4,896.3,196.8,896.3,212.3z"/>
		<path d="M974,224.3h-51.9c1,11.7,9.3,18.2,20,18.2c7.7,0,14-3.3,17.1-9.5h13.6c-5,14.3-17.2,21-30.8,21
			c-19.4,0-33.2-13.9-33.2-33.2c0-19.3,13.7-33.4,33-33.4C962.3,187.4,975.3,203.3,974,224.3z M922.9,213.6H960
			c-2-8.7-8.6-14.9-18.2-14.9C931.8,198.7,925.1,205,922.9,213.6z"/>
		<path d="M848.3,325.4v43.2h-11.4v-16.2c-3.8,10.4-14.9,17.6-29.4,17.6c-23,0-40.7-17.6-40.7-41.9s17.9-42.1,41.9-42.1
			c18.9,0,33.8,11.1,38.9,27.6h-14c-4.4-9.3-13.5-15.1-24.9-15.1c-16.6,0-28.5,12.4-28.5,29.8c0,16.5,10.9,29.5,28.4,29.5
			c13.6,0,24.4-8,26.5-21.2h-30.5v-11.1H848.3z"/>
		<path d="M903,303.7v13.3c-1.2-0.1-2.2-0.2-3.9-0.2c-12,0-21.1,6.7-21.1,22.5v29.2h-13.1v-63.8H878v12.6c3.8-8.9,11.1-14,21.2-14
			C900.8,303.4,902.1,303.5,903,303.7z"/>
		<path d="M975.4,340.3h-51.9c1,11.7,9.3,18.2,20,18.2c7.7,0,14-3.3,17.1-9.5h13.6c-5,14.3-17.2,21-30.8,21
			c-19.4,0-33.2-13.9-33.2-33.2c0-19.3,13.7-33.4,33-33.4C963.7,303.4,976.7,319.3,975.4,340.3z M924.2,329.6h37.1
			c-2-8.7-8.6-14.9-18.2-14.9C933.2,314.8,926.5,321,924.2,329.6z"/>
		<path d="M1051.3,340.3h-51.9c1,11.7,9.3,18.2,20,18.2c7.7,0,14-3.3,17.1-9.5h13.6c-5,14.3-17.2,21-30.8,21
			c-19.4,0-33.2-13.9-33.2-33.2c0-19.3,13.7-33.4,33-33.4C1039.6,303.4,1052.6,319.3,1051.3,340.3z M1000.1,329.6h37.1
			c-2-8.7-8.6-14.9-18.2-14.9C1009.1,314.8,1002.3,321,1000.1,329.6z"/>
		<path d="M1121.5,328.3v40.3h-13.1V331c0-9.9-4.3-15.1-13.9-15.1c-11.3,0-17.3,7.3-17.3,19.6v33.1h-13.1v-63.8h13.1v10.6
			c4.5-7.4,11.4-12,21.4-12C1112.9,303.4,1121.5,312.8,1121.5,328.3z"/>
		<path d="M832.1,430.1c0,15.9-10.8,27-28.5,27h-20.2v27.5h-13.1v-81.2h33.3C821.3,403.4,832.1,414.1,832.1,430.1z M818.8,430.2
			c0-8.2-5-14.3-15.7-14.3h-19.7v28.7h19.7C813.8,444.6,818.8,438.5,818.8,430.2z"/>
		<path d="M844.9,395.3h13.2v89.4h-13.2V395.3z"/>
		<path d="M929.5,420.8v63.8h-13.1v-10.6c-4.5,7.3-11.4,12-21.2,12c-14.2,0-22.6-9.4-22.6-24.9v-40.3h13.1v37.6
			c0,9.9,4.2,15.1,13.7,15.1c10.9,0,17.1-7.3,17.1-19.6v-33.1H929.5z"/>
		<path d="M941.4,464.1h13.3c2,7.1,7.2,10.3,18.2,10.3c8.5,0,13.7-2.6,13.7-7.3c0-5.3-6-6.2-16.7-8.7c-17.9-4.4-25.4-8-25.4-18.7
			c0-12.9,10.9-20.3,26.9-20.3c16.4,0,25.5,7.8,27.9,19.4h-13.2c-1.9-5.2-6.7-7.8-14.9-7.8c-8.5,0-13.5,2.9-13.5,7.3
			c0,4.1,3.9,5.1,15.1,7.8c17.3,4.1,27.3,7.1,27.3,19.5c0,13.7-12.3,20.4-27.4,20.4C955.9,486,943.9,477.9,941.4,464.1z"/>
	</g>
</g>
</svg>
